<svg width="25" height="25" viewBox="0 0 25 25" fill="none" xmlns="http://www.w3.org/2000/svg">
<path d="M2.5 6.25C2.5 5.58696 2.76339 4.95107 3.23223 4.48223C3.70107 4.01339 4.33696 3.75 5 3.75H13.75C14.413 3.75 15.0489 4.01339 15.5178 4.48223C15.9866 4.95107 16.25 5.58696 16.25 6.25V11.25C16.25 11.913 15.9866 12.5489 15.5178 13.0178C15.0489 13.4866 14.413 13.75 13.75 13.75H11.25L7.5 17.5V13.75H5C4.33696 13.75 3.70107 13.4866 3.23223 13.0178C2.76339 12.5489 2.5 11.913 2.5 11.25V6.25Z" fill="white"/>
<path d="M18.75 8.75V11.25C18.75 12.5761 18.2232 13.8479 17.2855 14.7855C16.3479 15.7232 15.0761 16.25 13.75 16.25H12.285L10.0775 18.4587C10.4275 18.645 10.8262 18.75 11.25 18.75H13.75L17.5 22.5V18.75H20C20.663 18.75 21.2989 18.4866 21.7678 18.0178C22.2366 17.5489 22.5 16.913 22.5 16.25V11.25C22.5 10.587 22.2366 9.95107 21.7678 9.48223C21.2989 9.01339 20.663 8.75 20 8.75H18.75Z" fill="white"/>
</svg>
